<svg xmlns="http://www.w3.org/2000/svg" viewBox="0 0 144.79 44.55"><path d="M6.68.01v44.54H0V.01h6.68zm3.82 43.52l16.29-6.93v7.95H10.5v-1.02zM34.41.08h6.68v44.47h-6.68V.08zm25.7 7.95L44.91 1.1V.08h15.2v7.95zm-15.2 13.8l12.21-3.31v7.57l-12.21-3.25v-1.02zm0 21.7l16.22-6.93v7.95H44.91v-1.02zM75.45.01c0 11.64 8.14 16.29 16.29 22.27 9.29 6.87 12.91 13.55 12.85 22.27h-6.74c0-11.64-8.14-16.29-16.29-22.27C72.27 15.41 68.77 8.73 68.77.01h6.68zm0 44.53h-6.68c0-8.14 5.53-16.16 12.72-18.58l1.15.76c-4.58 4.07-7.19 10.37-7.19 17.81zM97.9.01h6.68c.06 8.08-5.47 16.03-12.53 18.51l-1.21-.83C95.36 13.62 97.9 7.38 97.9 0zm22.27 0v44.54h-6.68V.01h6.68zm3.82 20.61c6.81 0 10.56-3.82 10.56-9.86 0-5.22-4.52-9.61-10.56-9.61V.01c9.48-.25 17.24 3.05 17.24 10.69 0 5.34-4.01 9.1-9.35 10.75 8.33 5.92 12.91 14.12 12.91 23.09h-6.68c0-8.97-5.02-16.99-14.12-22.46v-1.46z" fill="#00f9c4"></path></svg>