<?xml version="1.0" encoding="UTF-8"?>
<svg id="Layer_1" xmlns="http://www.w3.org/2000/svg" version="1.1" viewBox="0 0 120 120">
  <!-- Generator: Adobe Illustrator 29.6.0, SVG Export Plug-In . SVG Version: 2.1.1 Build 207)  -->
  <defs>
    <style>
      .st0 {
        fill: #fff;
        fill-rule: evenodd;
      }
    </style>
  </defs>
  <path class="st0" d="M25.6,86.1h4.1c17,0,19.5-2.4,26-18h2l-4.4,21.5c-2.3,0-4.9,0-7.5-.2-4.7-.2-9.6-.3-13.8-.3H9.4l30.8-55.5h-3c-16.1,0-17,2.1-22,13.5-.6,1.4-1.3,2.9-2,4.5h-2l3.8-21.4c2.5,0,5,.2,7.5.3,4.2.2,8.4.3,12.4.3h21.4l-30.8,55.4h0ZM108.7,68.6c-6.4,15.5-8.9,17.8-25.7,17.8h-4.1l30.5-54.9h-21.2c-4,0-8.1,0-12.3-.3-2.5,0-5-.2-7.4-.2l-3.9,21.2h2c.7-1.6,1.4-3.1,2-4.5,5-11.3,5.9-13.4,21.8-13.4h3l-30.5,54.9h22.4c4.1,0,9,.2,13.7.3,2.6,0,5.1.2,7.4.2l4.3-21.2h-2,0Z"/>
</svg>