<?xml version="1.0" encoding="UTF-8"?>
<svg id="uuid-4883b965-510a-48f4-b14d-958ee33931e8" xmlns="http://www.w3.org/2000/svg" version="1.1" viewBox="0 0 120 120">
  <!-- Generator: Adobe Illustrator 29.6.0, SVG Export Plug-In . SVG Version: 2.1.1 Build 207)  -->
  <defs>
    <style>
      .st0 {
        fill: #fff;
        fill-rule: evenodd;
      }
    </style>
  </defs>
  <g id="uuid-e738f16c-be36-428b-84e7-020b202b58ab">
    <path class="st0" d="M77.8,83.3c-.7,0-1.1.7-1.1,1.6h0q0,.2.2.2l1.6-.2c.2,0,.2-.1.2-.4,0-1-.4-1.4-1-1.3h0Z"/>
    <path class="st0" d="M92.7,25.7c0-.1-.2-.2-.5-.2l-62.7-9.1s-.6,0-.8.4l-1.4,2.3v82.1l1.7,2.3s.1.1.2.1h.2c.2,0,1.1-.1,1.1-.1l61.4-9.2c1-.1,1-.2,1-1V26.1c0-.1,0-.4-.1-.5h0ZM29.6,102.6V27.6l.2.7.4,73.8-.7.5h.1ZM49.1,93.1v.2h0q0,.1-.1.1h-1.2c-.4.2-.5,0-.5-.2v-5.3c0-.8-.2-1.3-1-1.2-.5,0-.8.4-1.2.7-.1.1-.2.4-.2.6v5.6h0v.2h-1.3c-.4.2-.5,0-.5-.2v-5.4c0-1-.2-1.3-1-1.2-.5,0-1,.4-1.2.7,0,0-.1.2-.2.4v6.2h0c0,.2,0,.1-.1.1h-1.2c-.4.2-.5,0-.5-.2v-8.1c0-.2.1-.5.5-.5h1c0-.1.1,0,.2,0,0,0,.1,0,.1.2h0c0,.4.2.4.4.2.5-.4,1.1-.8,1.9-1,.8,0,1.3.2,1.7.7h0c.6-.5,1.3-1,2.3-1.1,1.3-.1,2.2.8,2.2,2.3v5.9h0v.2ZM45.7,33.3l-4.2-5.2,1.9-1.9,15.8,1.8,1.7,2.2-3.7,4.1h0l-11.5-1h0ZM44.5,48.6l13.5.5,2.7,3.3-2.7,3.1h-13.5l-3.1-3.5s3.1-3.4,3.1-3.4ZM60.7,74.4l-1.7,2.1-15.7,1.2-1.9-1.9,4.2-5,11.4-.6,3.6,4.2h.1ZM44.5,57.9v11.5l-4.2,5-1.9-2.1v-17l1.9-2.2,4.2,4.7h0ZM52.8,92.6c0,.2,0,.5-.4.5h-1c-.2.1-.4,0-.4-.2v-7.6c0-.2.1-.5.5-.5h1c.2-.1.4,0,.4.2h0v7.6h-.1ZM52,83.6c-.7,0-1.2-.4-1.2-1.1h0c0-.7.5-1.2,1.2-1.3.7,0,1.2.4,1.2,1.1s-.5,1.2-1.2,1.3ZM60.8,91.5c0,.2,0,.5-.4.5h-1c-.2.1-.4,0-.4-.2v-5.1c0-.8-.4-1.2-1.1-1.2s-1,.4-1.2.6c0,0-.1.2-.2.2s0,.2,0,.4v5.3c0,.2-.1.5-.4.5h-1c-.2.2-.4,0-.4-.2h0v-7.5c0-.2.1-.5.5-.5h1.1s.1,0,.1.2h0v.2h0c.5-.4,1.2-.8,1.9-.8,1.2-.1,2.2.7,2.2,2.2v5.7h0v-.2ZM58.1,46.6v-11l3.7-4.1,1.7,2.2h0v15.5l-1.7,1.9-3.6-4.6h-.1ZM68.3,90.6c0,.2,0,.4-.4.5h-.7c0-.2-.2-.4-.4-.2-.4.4-1.1.8-1.8,1-1.2.1-2.1-.7-2.1-2.1v-5.6c0-.2.1-.5.4-.5h1c.2-.1.4,0,.4.2v5c0,.8.4,1.2,1,1.1.5,0,.8-.4,1.2-.6.1-.2.2-.4.2-.6v-5.1c0-.2,0-.5.4-.5h.8c.2-.1.4,0,.4.2v7.1h-.4ZM81.3,36.4h0l-9.4-.8-3.4-4.6,1.6-1.7,12.9,1.4,1.3,1.9-3,3.7h0ZM82,57.8l3-4,1.3,1.8v14l-1.4,1.9-3-3.9v-9.9h.1ZM71.1,36.8v10.4h0l-3.5,4.1-1.6-1.9v-15.3l1.7-1.8,3.4,4.6h0ZM67.5,53.6l3.4,4.2v10.4l-3.5,4.5-1.6-1.9v-15.3l1.6-1.9h.1ZM71.9,69.3l9.3-.5,3,3.9-1.3,1.9-12.8,1h0l-1.6-1.8,3.4-4.5h0ZM74.4,89.5h0c0,.2,0,.1,0,.1-.6.4-1,.6-1.7.7-1.2.1-1.8-.6-1.8-2.2v-3.6c0-.2-.1-.4-.4-.4h-.5c-.2,0-.4,0-.4-.4v-.7c0-.2,0-.5.4-.5h.5c.2,0,.4-.2.4-.5v-1.2c0-.2,0-.4.4-.5h.8c.2,0,.4,0,.4.2v1.2c0,.4.1.4.4.4h1.2c.2-.1.4,0,.4.2v.7c0,.2-.1.4-.4.5h-1.2c-.2.1-.4.2-.4.6v3.5c0,.6,0,1,.5.8.2,0,.5-.1.8-.5.2-.1.4,0,.5.1l.2.6h0v.6ZM80.4,85.8v.2s-.1,0-.2.1h0l-3,.4c-.1,0-.2.1-.2.4,0,.8.7,1.2,1.3,1.2s1-.5,1.4-.7c.2,0,.4,0,.5.1l.2.6v.2s0,.2-.2.2c-.5.4-1.2.8-2.1,1-1.6.2-2.8-.7-2.8-3.6s1.2-4.2,2.8-4.3c1.7-.1,2.4,1.1,2.4,3.5v.6h-.1ZM86.5,88c0,.2,0,.4-.4.4h-.7c-.2.1-.4,0-.4-.2v-4.6c0-.7-.2-1.1-.8-1.1s-.7.2-1,.6c-.1.1-.2.4-.2.6v4.7c0,.2,0,.4-.4.4h-.8c-.2.1-.4,0-.4-.2h0v-6.8c0-.2,0-.4.4-.5h1c0,.4.1.4.2.4.4-.4,1-.7,1.6-.8,1,0,1.7.7,1.7,1.9v5.1h0l.2.2ZM86.6,35.8v14l-1.4,1.8-3-4.1v-9.9l3-3.7,1.3,1.9h.1ZM91.1,26.1l-60.9-8.1-.5-.7,62,8.7h-.6q0,.1,0,.1Z"/>
  </g>
</svg>