<svg width="24" height="25" viewBox="0 0 24 25" fill="none" xmlns="http://www.w3.org/2000/svg">
<path d="M21 12.6333V16.9273C21 17.1452 20.8819 17.3459 20.6914 17.4518L12.2914 22.1184C12.1102 22.2191 11.8898 22.2191 11.7086 22.1184L3.30863 17.4518C3.11816 17.3459 3.00002 17.1452 3.00002 16.9273L3 12.6333C3 12.4154 3.11814 12.2147 3.30862 12.1088L11.7086 7.4422C11.8898 7.34153 12.1102 7.34153 12.2914 7.4422L20.6914 12.1088C20.8818 12.2147 21 12.4154 21 12.6333Z" stroke="currentColor" stroke-linecap="round" stroke-linejoin="round"/>
<path d="M3.52832 12.5739L11.7085 17.1185C11.8897 17.2191 12.1101 17.2191 12.2913 17.1185L20.4999 12.5581" stroke="currentColor" stroke-linecap="round" stroke-linejoin="round"/>
<path d="M12 21.7803V17.2803" stroke="white" stroke-linecap="round" stroke-linejoin="round"/>
<path d="M12 12.2803V2.28027M12 2.28027L14.5 4.78027M12 2.28027L9.5 4.78027" stroke="currentColor" stroke-linecap="round" stroke-linejoin="round"/>
</svg>
