<svg width="25" height="25" viewBox="0 0 25 25" fill="none" xmlns="http://www.w3.org/2000/svg">
<path d="M12.5 16.5C14.7091 16.5 16.5 14.7091 16.5 12.5C16.5 10.2909 14.7091 8.5 12.5 8.5C10.2909 8.5 8.5 10.2909 8.5 12.5C8.5 14.7091 10.2909 16.5 12.5 16.5Z" stroke="white" stroke-linecap="round" stroke-linejoin="round"/>
<path d="M3.5 16.5V8.5C3.5 5.73858 5.73858 3.5 8.5 3.5H16.5C19.2614 3.5 21.5 5.73858 21.5 8.5V16.5C21.5 19.2614 19.2614 21.5 16.5 21.5H8.5C5.73858 21.5 3.5 19.2614 3.5 16.5Z" stroke="white"/>
<path d="M18 7.01L18.01 6.99889" stroke="white" stroke-linecap="round" stroke-linejoin="round"/>
</svg>
