<svg width="28" height="29" viewBox="0 0 28 29" fill="none" xmlns="http://www.w3.org/2000/svg">
<mask id="path-1-inside-1_30_875" fill="currentColor">
<path d="M18.0938 10.1865H27.9766V18.374H18.0938V28.2568H9.90625V18.374H0.0234375V10.1865H9.90625V0.303711H18.0938V10.1865Z"/>
</mask>
<path d="M18.0938 10.1865H17.0938V11.1865H18.0938V10.1865ZM27.9766 10.1865H28.9766V9.18652H27.9766V10.1865ZM27.9766 18.374V19.374H28.9766V18.374H27.9766ZM18.0938 18.374V17.374H17.0938V18.374H18.0938ZM18.0938 28.2568V29.2568H19.0938V28.2568H18.0938ZM9.90625 28.2568H8.90625V29.2568H9.90625V28.2568ZM9.90625 18.374H10.9062V17.374H9.90625V18.374ZM0.0234375 18.374H-0.976562V19.374H0.0234375V18.374ZM0.0234375 10.1865V9.18652H-0.976562V10.1865H0.0234375ZM9.90625 10.1865V11.1865H10.9062V10.1865H9.90625ZM9.90625 0.303711V-0.696289H8.90625V0.303711H9.90625ZM18.0938 0.303711H19.0938V-0.696289H18.0938V0.303711ZM18.0938 10.1865V11.1865H27.9766V10.1865V9.18652H18.0938V10.1865ZM27.9766 10.1865H26.9766V18.374H27.9766H28.9766V10.1865H27.9766ZM27.9766 18.374V17.374H18.0938V18.374V19.374H27.9766V18.374ZM18.0938 18.374H17.0938V28.2568H18.0938H19.0938V18.374H18.0938ZM18.0938 28.2568V27.2568H9.90625V28.2568V29.2568H18.0938V28.2568ZM9.90625 28.2568H10.9062V18.374H9.90625H8.90625V28.2568H9.90625ZM9.90625 18.374V17.374H0.0234375V18.374V19.374H9.90625V18.374ZM0.0234375 18.374H1.02344V10.1865H0.0234375H-0.976562V18.374H0.0234375ZM0.0234375 10.1865V11.1865H9.90625V10.1865V9.18652H0.0234375V10.1865ZM9.90625 10.1865H10.9062V0.303711H9.90625H8.90625V10.1865H9.90625ZM9.90625 0.303711V1.30371H18.0938V0.303711V-0.696289H9.90625V0.303711ZM18.0938 0.303711H17.0938V10.1865H18.0938H19.0938V0.303711H18.0938Z" fill="currentColor" mask="url(#path-1-inside-1_30_875)"/>
</svg>
